# xmcd
#
# Track frame offsets: 
#        150
#        15605
#        27665
#        45550
#        58637
#        77265
#        93870
#        106500
#        124227
#        141472
#        159140
#        179022
#
# Disc length: 2609 seconds
#
# Revision: 4
# Processed by: cddbd v1.5.2PL0 Copyright (c) Steve Scherf et al.
# Submitted via: ExactAudioCopy v1.0b3
#
DISCID=900a2f0c
DTITLE=Gerry Boulet - Gerry
DYEAR=1991
DGENRE=
TTITLE0=Leurre du temps
TTITLE1=Le roi d'la marchette
TTITLE2=Nostalgie
TTITLE3=Slack la poulie
TTITLE4=40 ans de blues
TTITLE5=Café Rimbaud
TTITLE6=Le serre-volant
TTITLE7=Pendant qu'j'suis là qui t'aime
TTITLE8=Les bleus d'mémoire
TTITLE9=Elle et moi
TTITLE10=City Night
TTITLE11=Corps à corps
EXTD=
EXTT0=
EXTT1=
EXTT2=
EXTT3=
EXTT4=
EXTT5=
EXTT6=
EXTT7=
EXTT8=
EXTT9=
EXTT10=
EXTT11=
PLAYORDER=
